<svg width="279" height="71" viewBox="0 0 310 79" fill="none" xmlns="http://www.w3.org/2000/svg">
<path d="M118.138 12.856H109.742V65.3326H121.877V44.2763H140.835V34.0434H121.877V23.6793H141.622V12.856H121.877H118.138Z" fill="#F4FEF5"/>
<path d="M160.176 12.856H147.516V65.3326H181.232V54.4437H160.176V12.856Z" fill="#F4FEF5"/>
<path d="M200.001 12.856H187.078V65.3326H200.001V12.856Z" fill="#F4FEF5"/>
<path d="M209.827 12.856V24.204H230.686L206.219 65.3326H248.266V54.4437H226.16L250.955 12.856H209.827Z" fill="#F4FEF5"/>
<path d="M272.298 36.1434C272.298 34.7659 271.97 33.5196 271.38 32.5356C270.789 31.5517 269.871 30.7646 268.69 30.2398C267.509 29.715 266.066 29.4526 264.295 29.4526H257.211V49.9185H262.131V42.8342H264.295C266.066 42.8342 267.509 42.5718 268.69 42.047C269.871 41.5223 270.789 40.7351 271.38 39.7512C272.036 38.7017 272.298 37.5209 272.298 36.1434ZM266.722 38.1113C266.132 38.5705 265.41 38.7672 264.361 38.7672H262.196V33.5196H264.361C265.345 33.5196 266.132 33.7164 266.722 34.1755C267.313 34.6347 267.575 35.2907 267.575 36.1434C267.509 37.0618 267.247 37.6521 266.722 38.1113Z" fill="#F4FEF5"/>
<path d="M271.227 49.9183H276.802L278.704 45.9825H285.264L287.166 49.9183H292.808L281.984 28.2061L271.227 49.9183ZM284.28 42.2436H279.754L282.05 36.9959L284.28 42.2436Z" fill="#F4FEF5"/>
<path d="M304.358 29.4526L300.357 37.1274L296.355 29.4526H290.648L297.798 41.6535V49.9841H302.849V41.6535L309.999 29.5182H304.358V29.4526Z" fill="#F4FEF5"/>
<path d="M63.8973 50.4426H47.5711L65.938 19.6782H12.2734V58.5244H21.2601V42.8991H35.2976V35.3556H21.3436V27.6809H35.4288H50.5158L32.8049 58.4453H63.8973V50.4426Z" fill="#001F3F"/>
<path d="M39.0295 0C17.4485 0 0 17.5141 0 39.0295C0 60.6105 17.5141 78.059 39.0295 78.059C60.6105 78.059 78.1246 60.5449 78.1246 39.0295C78.1246 17.4485 60.6105 0 39.0295 0ZM32.7979 58.4458L50.5743 27.6814H35.4873H21.3186V35.3561H35.2905V42.8996H21.253V58.5115H12.2664V19.6787H65.9238L47.557 50.4431H63.8903V58.4458H32.7979Z" fill="#80ED99"/>
</svg>
