<svg width="191" height="48" viewBox="0 0 191 48" fill="none" xmlns="http://www.w3.org/2000/svg">
<path d="M72.7485 8H67.5859V40.2689H75.0474V27.321H86.7035V21.0689H75.0474V14.6958H87.1875V8H75.0474H72.7485Z" fill="#001F3F"/>
<path d="M98.6045 8H90.8203V40.2689H111.551V33.5731H98.6045V8Z" fill="#001F3F"/>
<path d="M123.086 8H115.141V40.2689H123.086V8Z" fill="#001F3F"/>
<path d="M129.132 8V14.9781H141.958L126.914 40.2689H152.767V33.5731H139.175L154.421 8H129.132Z" fill="#001F3F"/>
<path d="M167.534 22.1143C167.534 21.2672 167.333 20.5008 166.97 19.8958C166.607 19.2907 166.042 18.8067 165.316 18.484C164.59 18.1613 163.703 18 162.614 18H158.258V30.5849H161.283V26.2286H162.614C163.703 26.2286 164.59 26.0672 165.316 25.7445C166.042 25.4218 166.607 24.9378 166.97 24.3328C167.373 23.6874 167.534 22.9613 167.534 22.1143ZM164.106 23.3244C163.743 23.6067 163.299 23.7277 162.654 23.7277H161.323V20.5008H162.654C163.259 20.5008 163.743 20.6218 164.106 20.9042C164.469 21.1865 164.63 21.5899 164.63 22.1143C164.63 22.6386 164.429 23.042 164.106 23.3244Z" fill="#001F3F"/>
<path d="M166.891 30.3916H170.319L171.489 27.9714H175.522L176.691 30.3916H180.16L173.505 17L166.891 30.3916ZM174.917 25.6723H172.134L173.545 22.4454L174.917 25.6723Z" fill="#001F3F"/>
<path d="M187.258 18L184.797 22.7193L182.337 18H178.828L183.224 25.5025V30.6252H186.33V25.5025L190.726 18.0403H187.258V18Z" fill="#001F3F"/>
<path d="M39.5304 31.0187H29.4995L40.7842 12.1011H7.8125V35.9884H13.3339V26.3801H21.9586V21.7414H13.3852V17.0221H22.0392H31.3087L20.4271 35.9397H39.5304V31.0187Z" fill="#001F3F"/>
<path d="M24.2533 0C10.9938 0 0.273438 10.7697 0.273438 24C0.273438 37.2706 11.0342 48 24.2533 48C37.5127 48 48.2734 37.2303 48.2734 24C48.2734 10.7294 37.5127 0 24.2533 0ZM20.4246 35.9395L31.3465 17.0219H22.077H13.3717V21.7412H21.9561V26.3798H13.3314V35.9798H7.80996V12.1008H40.7772L29.4926 31.0185H39.5279V35.9395H20.4246Z" fill="#80ED99"/>
</svg>
