<svg width="112" height="28" viewBox="0 0 112 28" fill="none" xmlns="http://www.w3.org/2000/svg">
<path d="M41.4467 4.65967H38.4375V23.4674H42.7915V15.9184H49.5881V12.2627H42.7915V8.55522H49.8585V4.65967H42.7915H41.4467Z" fill="#F4FEF5"/>
<path d="M57.8311 4.63867H53.2891V23.4464H65.3801V19.5508H57.8311V4.63867Z" fill="#F4FEF5"/>
<path d="M72.1064 4.61719H67.4844V23.4249H72.1064V4.61719Z" fill="#F4FEF5"/>
<path d="M75.6344 4.70215V8.75991H83.1034L74.3438 23.5099H89.4181V19.6143H81.4907L90.3844 4.70215H75.6344Z" fill="#F4FEF5"/>
<path d="M98.0252 13.0477C98.0252 12.5446 97.917 12.1144 97.7007 11.757C97.4845 11.3997 97.1624 11.127 96.7368 10.9389C96.3184 10.7438 95.7965 10.645 95.1735 10.645H92.625V17.9847H94.3976V15.4363H95.1735C95.7965 15.4363 96.316 15.3422 96.7368 15.1542C97.1624 14.959 97.4845 14.6816 97.7007 14.3266C97.917 13.9622 98.0252 13.5367 98.0252 13.0477ZM96.0127 13.7389C95.8106 13.8988 95.5308 13.981 95.1735 13.981H94.3976V12.105H95.1735C95.5308 12.105 95.8106 12.1849 96.0127 12.3471C96.2149 12.5093 96.316 12.7421 96.316 13.0501C96.316 13.358 96.2149 13.5814 96.0127 13.7412V13.7389Z" fill="#F4FEF5"/>
<path d="M97.6328 17.985H99.6358L100.32 16.5697H102.662L103.348 17.985H105.36L101.491 10.1821L97.6328 17.985ZM102.311 15.2155H100.68L101.493 13.3395L102.311 15.2155Z" fill="#F4FEF5"/>
<path d="M109.516 10.645L108.079 13.4027L106.643 10.645H104.609L107.177 15.0084V17.9847H108.982V14.9967L111.549 10.645H109.516Z" fill="#F4FEF5"/>
<path d="M14.4531 0C6.7208 0 0.453125 6.26767 0.453125 14C0.453125 21.7323 6.7208 28 14.4531 28C22.1855 28 28.4531 21.7323 28.4531 14C28.4531 6.26767 22.1855 0 14.4531 0ZM23.3468 18.0742V20.9565H12.1985L18.5626 9.93283L13.1507 9.92813H8.0632V12.6717H13.0919V15.3753H8.0632V20.9589H4.84473V7.04584H24.0639L17.4859 18.0766H23.3492L23.3468 18.0742Z" fill="#F4FEF5"/>
</svg>
