<svg width="157" height="46" viewBox="0 0 157 46" fill="none" xmlns="http://www.w3.org/2000/svg">
<path d="M155.181 39.9264C155.181 42.3288 153.194 44.2747 150.737 44.2747H5.31665C2.86069 44.2747 0.867188 42.3288 0.867188 39.9264V5.24955C0.867188 2.8483 2.86069 0.895508 5.31665 0.895508H150.736C153.194 0.895508 155.18 2.8483 155.18 5.24955L155.181 39.9264Z" fill="black"/>
<path d="M150.268 0.947647C152.944 0.947647 155.121 3.07065 155.121 5.67968V39.49C155.121 42.099 152.944 44.222 150.268 44.222H5.77953C3.10361 44.222 0.92617 42.099 0.92617 39.49V5.67968C0.92617 3.07065 3.10361 0.947647 5.77953 0.947647H150.268ZM150.268 0.044632H5.77953C2.60224 0.044632 0 2.58181 0 5.67968V39.49C0 42.5878 2.60224 45.125 5.77953 45.125H150.268C153.445 45.125 156.047 42.5878 156.047 39.49V5.67968C156.047 2.58181 153.445 0.044632 150.268 0.044632Z" fill="#A6A6A6"/>
<path d="M34.828 22.3414C34.7945 18.7091 37.8784 16.9419 38.0194 16.8596C36.2729 14.3768 33.5657 14.0376 32.6144 14.0106C30.3407 13.7773 28.1353 15.337 26.9771 15.337C25.7957 15.337 24.0122 14.0331 22.0899 14.0714C19.6162 14.1086 17.3021 15.505 16.0329 17.6733C13.4136 22.0946 15.3671 28.5918 17.8766 32.1655C19.1319 33.9158 20.5988 35.87 22.5187 35.8013C24.3971 35.7258 25.0987 34.6337 27.3654 34.6337C29.6114 34.6337 30.2702 35.8013 32.2283 35.7573C34.2442 35.7258 35.5134 33.9992 36.7248 32.2332C38.1755 30.2271 38.7581 28.2514 38.7812 28.15C38.7338 28.1342 34.8661 26.695 34.828 22.3414Z" fill="#F4FEF5"/>
<path d="M31.1291 11.6596C32.1393 10.4278 32.8306 8.75193 32.6387 7.05127C31.1765 7.11438 29.3478 8.0374 28.2948 9.24218C27.3631 10.3038 26.5309 12.0439 26.7459 13.6803C28.3884 13.7998 30.0749 12.8723 31.1291 11.6596Z" fill="#F4FEF5"/>
<path d="M56.6962 11.3255C56.6962 12.652 56.2882 13.6505 55.4733 14.3211C54.7185 14.9398 53.6458 15.2497 52.2564 15.2497C51.5675 15.2497 50.9779 15.2204 50.4844 15.1618V7.91402C51.1282 7.81258 51.8218 7.76074 52.5708 7.76074C53.8943 7.76074 54.8919 8.04137 55.5646 8.60262C56.3182 9.23712 56.6962 10.1444 56.6962 11.3255ZM55.4189 11.3582C55.4189 10.4982 55.1855 9.83895 54.7185 9.37913C54.2515 8.92043 53.5695 8.69052 52.6714 8.69052C52.2899 8.69052 51.9651 8.71532 51.6958 8.76716V14.2771C51.8449 14.2997 52.1177 14.3098 52.5141 14.3098C53.4412 14.3098 54.1567 14.0585 54.6607 13.5558C55.1646 13.0532 55.4189 12.3206 55.4189 11.3582Z" fill="#F4FEF5"/>
<path d="M63.4696 12.4838C63.4696 13.3009 63.2304 13.9703 62.7518 14.4955C62.2502 15.0353 61.5855 15.3047 60.7556 15.3047C59.9557 15.3047 59.3188 15.0466 58.8437 14.5282C58.3698 14.0109 58.1328 13.3583 58.1328 12.5717C58.1328 11.749 58.3767 11.0739 58.8668 10.5498C59.3569 10.0258 60.0158 9.76318 60.8457 9.76318C61.6456 9.76318 62.2883 10.0213 62.7749 10.5386C63.2373 11.0412 63.4696 11.6904 63.4696 12.4838ZM62.2132 12.5221C62.2132 12.0319 62.1045 11.6115 61.8884 11.261C61.6341 10.8372 61.2723 10.6253 60.8018 10.6253C60.3152 10.6253 59.9453 10.8372 59.691 11.261C59.4737 11.6115 59.3662 12.0386 59.3662 12.5435C59.3662 13.0338 59.4748 13.4541 59.691 13.8046C59.9534 14.2284 60.3186 14.4403 60.7902 14.4403C61.2526 14.4403 61.6156 14.225 61.8768 13.7934C62.101 13.4361 62.2132 13.0124 62.2132 12.5221Z" fill="#F4FEF5"/>
<path d="M72.5511 9.87158L70.8461 15.1843H69.7365L69.0302 12.8773C68.851 12.3014 68.7054 11.7289 68.5921 11.1609H68.5701C68.465 11.7447 68.3193 12.3161 68.1321 12.8773L67.3819 15.1843H66.2595L64.6562 9.87158H65.9012L66.5173 12.3972C66.6664 12.9945 66.7889 13.5637 66.8871 14.1024H66.9091C66.9993 13.6583 67.1484 13.0926 67.3588 12.4085L68.1321 9.87271H69.1192L69.8601 12.3544C70.0393 12.9596 70.1849 13.5423 70.2971 14.1035H70.3306C70.4127 13.5569 70.5363 12.9742 70.7005 12.3544L71.3617 9.87271H72.5511V9.87158Z" fill="#F4FEF5"/>
<path d="M78.8309 15.1841H77.6195V12.1411C77.6195 11.2035 77.2542 10.7346 76.5214 10.7346C76.1619 10.7346 75.8718 10.8631 75.6464 11.1212C75.4233 11.3793 75.31 11.6836 75.31 12.0318V15.1829H74.0986V11.3894C74.0986 10.9228 74.0836 10.4168 74.0547 9.86909H75.1193L75.1759 10.6997H75.2094C75.3505 10.4416 75.5608 10.2286 75.8371 10.0584C76.1654 9.86007 76.5329 9.75977 76.9352 9.75977C77.4438 9.75977 77.8669 9.9198 78.2032 10.241C78.6217 10.6343 78.8309 11.2215 78.8309 12.0014V15.1841Z" fill="#F4FEF5"/>
<path d="M82.1712 15.184H80.9609V7.43359H82.1712V15.184Z" fill="#F4FEF5"/>
<path d="M89.2978 12.4838C89.2978 13.3009 89.0585 13.9703 88.5799 14.4955C88.0783 15.0353 87.4125 15.3047 86.5837 15.3047C85.7827 15.3047 85.1457 15.0466 84.6718 14.5282C84.1979 14.0109 83.9609 13.3583 83.9609 12.5717C83.9609 11.749 84.2048 11.0739 84.6949 10.5498C85.185 10.0258 85.8439 9.76318 86.6727 9.76318C87.4737 9.76318 88.1153 10.0213 88.6031 10.5386C89.0654 11.0412 89.2978 11.6904 89.2978 12.4838ZM88.0401 12.5221C88.0401 12.0319 87.9315 11.6115 87.7153 11.261C87.4622 10.8372 87.0992 10.6253 86.6299 10.6253C86.1421 10.6253 85.7722 10.8372 85.5191 11.261C85.3018 11.6115 85.1943 12.0386 85.1943 12.5435C85.1943 13.0338 85.3029 13.4541 85.5191 13.8046C85.7815 14.2284 86.1468 14.4403 86.6184 14.4403C87.0807 14.4403 87.4425 14.225 87.7038 13.7934C87.9292 13.4361 88.0401 13.0124 88.0401 12.5221Z" fill="#F4FEF5"/>
<path d="M95.1609 15.1841H94.0731L93.983 14.5721H93.9495C93.5773 15.0601 93.0467 15.3047 92.3578 15.3047C91.8434 15.3047 91.4273 15.1435 91.114 14.8235C90.8297 14.5327 90.6875 14.1709 90.6875 13.7415C90.6875 13.0924 90.9649 12.5976 91.5232 12.255C92.0804 11.9124 92.8641 11.7445 93.8732 11.7524V11.6532C93.8732 10.9533 93.4963 10.6039 92.7415 10.6039C92.204 10.6039 91.7301 10.7358 91.3209 10.9973L91.0747 10.2219C91.581 9.91646 92.2064 9.76318 92.9438 9.76318C94.3679 9.76318 95.0823 10.4957 95.0823 11.9609V13.9173C95.0823 14.4482 95.1088 14.8708 95.1609 15.1841ZM93.9032 13.3583V12.539C92.567 12.5165 91.8989 12.8737 91.8989 13.6097C91.8989 13.8869 91.9752 14.0943 92.1312 14.2329C92.2873 14.3715 92.4861 14.4403 92.723 14.4403C92.9889 14.4403 93.2374 14.358 93.464 14.1946C93.6917 14.03 93.8316 13.8215 93.8836 13.5657C93.8963 13.5082 93.9032 13.4384 93.9032 13.3583Z" fill="#F4FEF5"/>
<path d="M102.045 15.184H100.97L100.914 14.3309H100.88C100.537 14.98 99.952 15.3046 99.1301 15.3046C98.4736 15.3046 97.9268 15.0533 97.4934 14.5507C97.0599 14.048 96.8438 13.3955 96.8438 12.5942C96.8438 11.7343 97.0784 11.0378 97.55 10.5058C98.0066 10.0099 98.566 9.76199 99.2318 9.76199C99.9635 9.76199 100.476 10.002 100.767 10.4833H100.79V7.43359H102.003V13.7527C102.003 14.27 102.016 14.7468 102.045 15.184ZM100.79 12.9435V12.0577C100.79 11.9044 100.778 11.7805 100.756 11.6858C100.688 11.4018 100.541 11.1629 100.318 10.9701C100.093 10.7774 99.8214 10.6805 99.5081 10.6805C99.0561 10.6805 98.7024 10.8552 98.4424 11.2057C98.1846 11.5562 98.054 12.0036 98.054 12.5502C98.054 13.0754 98.1777 13.5014 98.4262 13.8294C98.6886 14.1787 99.0423 14.3534 99.485 14.3534C99.8826 14.3534 100.2 14.208 100.442 13.9162C100.676 13.6468 100.79 13.3222 100.79 12.9435Z" fill="#F4FEF5"/>
<path d="M112.407 12.4838C112.407 13.3009 112.168 13.9703 111.689 14.4955C111.188 15.0353 110.524 15.3047 109.693 15.3047C108.894 15.3047 108.257 15.0466 107.781 14.5282C107.307 14.0109 107.07 13.3583 107.07 12.5717C107.07 11.749 107.314 11.0739 107.804 10.5498C108.294 10.0258 108.953 9.76318 109.784 9.76318C110.583 9.76318 111.227 10.0213 111.712 10.5386C112.175 11.0412 112.407 11.6904 112.407 12.4838ZM111.152 12.5221C111.152 12.0319 111.043 11.6115 110.827 11.261C110.572 10.8372 110.211 10.6253 109.739 10.6253C109.254 10.6253 108.884 10.8372 108.628 11.261C108.411 11.6115 108.304 12.0386 108.304 12.5435C108.304 13.0338 108.412 13.4541 108.628 13.8046C108.891 14.2284 109.256 14.4403 109.728 14.4403C110.19 14.4403 110.554 14.225 110.815 13.7934C111.039 13.4361 111.152 13.0124 111.152 12.5221Z" fill="#F4FEF5"/>
<path d="M118.923 15.1841H117.713V12.1411C117.713 11.2035 117.348 10.7346 116.614 10.7346C116.254 10.7346 115.964 10.8631 115.74 11.1212C115.516 11.3793 115.404 11.6836 115.404 12.0318V15.1829H114.191V11.3894C114.191 10.9228 114.177 10.4168 114.148 9.86909H115.212L115.269 10.6997H115.302C115.444 10.4416 115.655 10.2286 115.93 10.0584C116.259 9.86007 116.626 9.75977 117.029 9.75977C117.536 9.75977 117.959 9.9198 118.296 10.241C118.715 10.6343 118.923 11.2215 118.923 12.0014V15.1841Z" fill="#F4FEF5"/>
<path d="M127.076 10.7562H125.742V13.337C125.742 13.9929 125.979 14.3209 126.449 14.3209C126.666 14.3209 126.846 14.3028 126.989 14.2657L127.02 15.1616C126.78 15.2495 126.466 15.2935 126.079 15.2935C125.6 15.2935 125.228 15.1515 124.959 14.8675C124.688 14.5835 124.554 14.1056 124.554 13.4351V10.7562H123.758V9.87145H124.554V8.89771L125.741 8.54834V9.87032H127.075V10.7562H127.076Z" fill="#F4FEF5"/>
<path d="M133.49 15.184H132.278V12.1637C132.278 11.2113 131.912 10.7346 131.181 10.7346C130.619 10.7346 130.235 11.0107 130.025 11.563C129.989 11.679 129.968 11.821 129.968 11.9878V15.1829H128.758V7.43359H129.968V10.6354H129.991C130.373 10.0528 130.919 9.76199 131.628 9.76199C132.13 9.76199 132.545 9.92203 132.874 10.2432C133.284 10.6433 133.49 11.2384 133.49 12.025V15.184Z" fill="#F4FEF5"/>
<path d="M140.102 12.2763C140.102 12.4882 140.086 12.6662 140.057 12.8116H136.424C136.44 13.3368 136.614 13.7369 136.95 14.0142C137.258 14.2621 137.654 14.3861 138.139 14.3861C138.677 14.3861 139.167 14.3027 139.609 14.1347L139.798 14.9552C139.282 15.1738 138.674 15.2832 137.97 15.2832C137.126 15.2832 136.461 15.0409 135.98 14.5562C135.497 14.0716 135.258 13.4213 135.258 12.6054C135.258 11.8041 135.481 11.1369 135.931 10.6049C136.4 10.0369 137.034 9.75293 137.835 9.75293C138.619 9.75293 139.214 10.0369 139.617 10.6049C139.942 11.0558 140.102 11.6136 140.102 12.2763ZM138.946 11.9709C138.956 11.6204 138.876 11.3183 138.712 11.0636C138.501 10.7357 138.181 10.5711 137.748 10.5711C137.352 10.5711 137.03 10.7312 136.784 11.0524C136.582 11.3082 136.463 11.6136 136.424 11.9709H138.946Z" fill="#F4FEF5"/>
<path d="M62.01 35.5495H59.385L57.947 31.144H52.9489L51.5791 35.5495H49.0234L53.9753 20.5513H57.0339L62.01 35.5495ZM57.5136 29.2957L56.2132 25.3794C56.0756 24.9793 55.8179 24.0371 55.4376 22.554H55.3913C55.2399 23.1919 54.996 24.134 54.6608 25.3794L53.3835 29.2957H57.5136Z" fill="#F4FEF5"/>
<path d="M74.7442 30.0091C74.7442 31.8484 74.2345 33.3022 73.215 34.3695C72.3018 35.3196 71.1679 35.7941 69.8143 35.7941C68.3532 35.7941 67.3037 35.2824 66.6644 34.2591H66.6182V39.9561H64.1538V28.2949C64.1538 27.1386 64.1226 25.9519 64.0625 24.7347H66.2298L66.3674 26.4489H66.4136C67.2355 25.1573 68.4827 24.5127 70.1564 24.5127C71.4649 24.5127 72.5573 25.0165 73.4311 26.0251C74.3073 27.0349 74.7442 28.3626 74.7442 30.0091ZM72.2336 30.097C72.2336 29.0444 71.9909 28.1766 71.5031 27.4936C70.9702 26.7814 70.2547 26.4252 69.3577 26.4252C68.7497 26.4252 68.1972 26.6236 67.7036 27.0147C67.2089 27.4091 66.8852 27.9242 66.7338 28.562C66.6575 28.8596 66.6194 29.103 66.6194 29.2946V31.0978C66.6194 31.8845 66.8667 32.5483 67.3615 33.0904C67.8562 33.6325 68.4989 33.9029 69.2895 33.9029C70.2177 33.9029 70.9401 33.5536 71.4568 32.8571C71.9747 32.1595 72.2336 31.2398 72.2336 30.097Z" fill="#F4FEF5"/>
<path d="M87.5009 30.0091C87.5009 31.8484 86.9911 33.3022 85.9705 34.3695C85.0585 35.3196 83.9245 35.7941 82.5709 35.7941C81.1099 35.7941 80.0603 35.2824 79.4223 34.2591H79.376V39.9561H76.9116V28.2949C76.9116 27.1386 76.8804 25.9519 76.8203 24.7347H78.9876L79.1252 26.4489H79.1714C79.9921 25.1573 81.2393 24.5127 82.9143 24.5127C84.2216 24.5127 85.3139 25.0165 86.1901 26.0251C87.0628 27.0349 87.5009 28.3626 87.5009 30.0091ZM84.9903 30.097C84.9903 29.0444 84.7464 28.1766 84.2586 27.4936C83.7257 26.7814 83.0125 26.4252 82.1144 26.4252C81.5052 26.4252 80.9538 26.6236 80.4591 27.0147C79.9644 27.4091 79.6419 27.9242 79.4905 28.562C79.4153 28.8596 79.376 29.103 79.376 29.2946V31.0978C79.376 31.8845 79.6234 32.5483 80.1158 33.0904C80.6105 33.6313 81.2532 33.9029 82.0462 33.9029C82.9744 33.9029 83.6968 33.5536 84.2135 32.8571C84.7313 32.1595 84.9903 31.2398 84.9903 30.097Z" fill="#F4FEF5"/>
<path d="M101.77 31.3436C101.77 32.6193 101.315 33.6573 100.403 34.4586C99.4013 35.3343 98.0061 35.7716 96.2133 35.7716C94.558 35.7716 93.231 35.4605 92.2266 34.8373L92.7976 32.8346C93.8795 33.4725 95.0666 33.7925 96.3601 33.7925C97.2883 33.7925 98.0107 33.5874 98.5297 33.1795C99.0464 32.7715 99.3042 32.2237 99.3042 31.5408C99.3042 30.9322 99.0915 30.4194 98.665 30.0035C98.2407 29.5877 97.5322 29.2011 96.5427 28.8438C93.8495 27.8645 92.504 26.4298 92.504 24.5432C92.504 23.3102 92.9756 22.2993 93.92 21.5126C94.8609 20.7249 96.1162 20.3315 97.6859 20.3315C99.0857 20.3315 100.249 20.5693 101.177 21.0438L100.561 23.0026C99.6937 22.5427 98.7135 22.3128 97.6166 22.3128C96.7496 22.3128 96.0723 22.5213 95.5868 22.9361C95.1764 23.3068 94.9707 23.7588 94.9707 24.2941C94.9707 24.8869 95.2053 25.3772 95.6769 25.7626C96.0873 26.1187 96.8329 26.5042 97.9148 26.92C99.2383 27.4396 100.21 28.047 100.836 28.7435C101.459 29.4378 101.77 30.3067 101.77 31.3436Z" fill="#F4FEF5"/>
<path d="M109.911 26.5379H107.195V31.7887C107.195 33.1242 107.674 33.7914 108.633 33.7914C109.073 33.7914 109.439 33.7542 109.728 33.6798L109.796 35.5044C109.31 35.6814 108.671 35.7704 107.879 35.7704C106.906 35.7704 106.145 35.4808 105.596 34.9026C105.05 34.3233 104.775 33.3518 104.775 31.987V26.5357H103.156V24.7325H104.775V22.7523L107.195 22.04V24.7325H109.911V26.5379Z" fill="#F4FEF5"/>
<path d="M122.169 30.0529C122.169 31.7153 121.681 33.0801 120.708 34.1473C119.687 35.2462 118.333 35.7939 116.644 35.7939C115.016 35.7939 113.721 35.2676 112.754 34.215C111.788 33.1623 111.305 31.8336 111.305 30.2321C111.305 28.5563 111.802 27.1836 112.799 26.1163C113.795 25.0479 115.138 24.5137 116.826 24.5137C118.454 24.5137 119.764 25.04 120.752 26.0937C121.697 27.1159 122.169 28.4357 122.169 30.0529ZM119.612 30.1307C119.612 29.1333 119.394 28.2779 118.951 27.5645C118.434 26.7012 117.696 26.2707 116.739 26.2707C115.748 26.2707 114.995 26.7023 114.479 27.5645C114.036 28.279 113.818 29.1479 113.818 30.1758C113.818 31.1732 114.036 32.0286 114.479 32.7408C115.012 33.6041 115.756 34.0346 116.717 34.0346C117.658 34.0346 118.396 33.5951 118.929 32.7183C119.383 31.9914 119.612 31.127 119.612 30.1307Z" fill="#F4FEF5"/>
<path d="M130.184 26.8479C129.941 26.8039 129.68 26.7814 129.408 26.7814C128.541 26.7814 127.87 27.1003 127.399 27.7393C126.988 28.3028 126.783 29.0151 126.783 29.875V35.5495H124.319L124.342 28.1405C124.342 26.8941 124.311 25.7592 124.25 24.7358H126.397L126.487 26.805H126.555C126.815 26.0939 127.225 25.5214 127.787 25.092C128.336 24.7054 128.929 24.5127 129.568 24.5127C129.796 24.5127 130.002 24.5285 130.184 24.5566V26.8479Z" fill="#F4FEF5"/>
<path d="M141.201 29.6302C141.201 30.0607 141.172 30.4236 141.111 30.72H133.718C133.747 31.7884 134.104 32.6055 134.791 33.169C135.414 33.6728 136.219 33.9253 137.209 33.9253C138.303 33.9253 139.302 33.7551 140.2 33.4136L140.586 35.0816C139.537 35.5279 138.298 35.7499 136.868 35.7499C135.148 35.7499 133.798 35.2563 132.815 34.2701C131.835 33.284 131.344 31.9597 131.344 30.2985C131.344 28.6678 131.8 27.3097 132.715 26.2267C133.672 25.0703 134.965 24.4922 136.593 24.4922C138.191 24.4922 139.402 25.0703 140.223 26.2267C140.874 27.1452 141.201 28.2812 141.201 29.6302ZM138.851 29.007C138.868 28.2947 138.707 27.6794 138.373 27.1598C137.946 26.4915 137.291 26.1579 136.409 26.1579C135.603 26.1579 134.948 26.4836 134.447 27.1373C134.037 27.6568 133.793 28.2801 133.718 29.0059H138.851V29.007Z" fill="#F4FEF5"/>
</svg>
