<svg width="157" height="46" viewBox="0 0 157 46" fill="none" xmlns="http://www.w3.org/2000/svg">
<path d="M150.268 45.1396H5.77953C2.60224 45.1396 0 42.6025 0 39.5046V5.69432C0 2.59646 2.60224 0.0592775 5.77953 0.0592775H150.268C153.445 0.0592775 156.047 2.59646 156.047 5.69432V39.5046C156.047 42.6025 153.445 45.1396 150.268 45.1396Z" fill="#F4FEF5"/>
<path d="M150.268 0.962293C152.944 0.962293 155.121 3.0853 155.121 5.69432V39.5046C155.121 42.1136 152.944 44.2366 150.268 44.2366H5.77953C3.10361 44.2366 0.92617 42.1136 0.92617 39.5046V5.69432C0.92617 3.0853 3.10361 0.962293 5.77953 0.962293H150.268ZM150.268 0.0592775H5.77953C2.60224 0.0592775 0 2.59646 0 5.69432V39.5046C0 42.6025 2.60224 45.1396 5.77953 45.1396H150.268C153.445 45.1396 156.047 42.6025 156.047 39.5046V5.69432C156.047 2.59646 153.445 0.0592775 150.268 0.0592775Z" fill="#A6A6A6"/>
<path d="M11.1923 8.5555C10.8528 8.90205 10.6562 9.44161 10.6562 10.1404V35.0642C10.6562 35.7629 10.8528 36.3025 11.1923 36.649L11.2761 36.7251L25.6007 22.7643V22.4346L11.2761 8.47379L11.1923 8.5555Z" fill="#00D6FF"/>
<path d="M32.1055 27.4204L27.3359 22.7645V22.4348L32.1113 17.7788L32.2182 17.8394L37.8735 20.9767C39.4874 21.8671 39.4874 23.3322 37.8735 24.2282L32.2182 27.3598L32.1055 27.4204Z" fill="#FFC800"/>
<path d="M31.3531 28.2269L26.4709 23.4667L12.0625 37.5162C12.5986 38.0656 13.4727 38.1319 14.4668 37.5824L31.3531 28.2269Z" fill="#FF3A44"/>
<path d="M31.3531 16.9727L14.4668 7.61712C13.4727 7.07334 12.5986 7.13955 12.0625 7.68897L26.4709 21.7329L31.3531 16.9727Z" fill="#00F076"/>
<path d="M54.8074 11.6043C54.8074 12.5453 54.5185 13.299 53.9492 13.8611C53.2947 14.5275 52.4422 14.8627 51.3975 14.8627C50.3991 14.8627 49.5466 14.5218 48.8473 13.8498C48.1465 13.168 47.7969 12.3312 47.7969 11.3296C47.7969 10.3279 48.1465 9.49113 48.8473 8.81492C49.5466 8.13731 50.3991 7.79639 51.3975 7.79639C51.8946 7.79639 52.3685 7.89641 52.8207 8.08237C53.2715 8.26973 53.6385 8.52331 53.9044 8.83605L53.3004 9.43055C52.8366 8.89663 52.2052 8.63319 51.3975 8.63319C50.6693 8.63319 50.0379 8.88113 49.5018 9.38124C48.9716 9.88276 48.7057 10.5322 48.7057 11.3296C48.7057 12.1269 48.9716 12.782 49.5018 13.2835C50.0379 13.778 50.6693 14.0316 51.3975 14.0316C52.1705 14.0316 52.8207 13.778 53.3337 13.2779C53.6718 12.9468 53.8639 12.4904 53.9145 11.9072H51.3975V11.0929H54.7554C54.7959 11.269 54.8074 11.4394 54.8074 11.6043Z" fill="black" stroke="black" stroke-width="0.150268" stroke-miterlimit="10"/>
<path d="M60.1331 8.78142H56.9789V10.9227H59.8224V11.737H56.9789V13.8783H60.1331V14.7081H56.0859V7.95166H60.1331V8.78142Z" fill="black" stroke="black" stroke-width="0.150268" stroke-miterlimit="10"/>
<path d="M63.8901 14.7081H62.9972V8.78142H61.0625V7.95166H65.8263V8.78142H63.8901V14.7081Z" fill="black" stroke="black" stroke-width="0.150268" stroke-miterlimit="10"/>
<path d="M69.2812 14.7081V7.95166H70.1727V14.7081H69.2812Z" fill="black" stroke="black" stroke-width="0.150268" stroke-miterlimit="10"/>
<path d="M74.1167 14.7081H73.231V8.78142H71.2891V7.95166H76.0586V8.78142H74.1167V14.7081Z" fill="black" stroke="black" stroke-width="0.150268" stroke-miterlimit="10"/>
<path d="M85.0841 13.8386C84.4007 14.5218 83.554 14.8627 82.544 14.8627C81.5282 14.8627 80.6815 14.5218 79.9981 13.8386C79.3161 13.1567 78.9766 12.3199 78.9766 11.3296C78.9766 10.3392 79.3161 9.5024 79.9981 8.82056C80.6815 8.13731 81.5282 7.79639 82.544 7.79639C83.5482 7.79639 84.3949 8.13731 85.0783 8.82619C85.7661 9.51367 86.1056 10.3448 86.1056 11.3296C86.1056 12.3199 85.7661 13.1567 85.0841 13.8386ZM80.6584 13.2722C81.1728 13.778 81.7984 14.0316 82.544 14.0316C83.2838 14.0316 83.9152 13.778 84.4238 13.2722C84.9367 12.7665 85.1968 12.1171 85.1968 11.3296C85.1968 10.5421 84.9367 9.89262 84.4238 9.38688C83.9152 8.88113 83.2838 8.62756 82.544 8.62756C81.7984 8.62756 81.1728 8.88113 80.6584 9.38688C80.1455 9.89262 79.8854 10.5421 79.8854 11.3296C79.8854 12.1171 80.1455 12.7665 80.6584 13.2722Z" fill="black" stroke="black" stroke-width="0.150268" stroke-miterlimit="10"/>
<path d="M87.3594 14.7081V7.95166H88.443L91.8125 13.2063H91.8515L91.8125 11.9075V7.95166H92.704V14.7081H91.7735L88.2451 9.19419H88.2061L88.2451 10.4987V14.7081H87.3594Z" fill="black" stroke="black" stroke-width="0.150268" stroke-miterlimit="10"/>
<path d="M78.7568 24.5745C76.0419 24.5745 73.824 26.589 73.824 29.3685C73.824 32.1254 76.0419 34.1611 78.7568 34.1611C81.4775 34.1611 83.6954 32.1254 83.6954 29.3685C83.6954 26.589 81.4775 24.5745 78.7568 24.5745ZM78.7568 32.2733C77.2671 32.2733 75.9855 31.0745 75.9855 29.3685C75.9855 27.6399 77.2671 26.4622 78.7568 26.4622C80.2465 26.4622 81.5339 27.6399 81.5339 29.3685C81.5339 31.0745 80.2465 32.2733 78.7568 32.2733ZM67.9938 24.5745C65.2731 24.5745 63.061 26.589 63.061 29.3685C63.061 32.1254 65.2731 34.1611 67.9938 34.1611C70.7131 34.1611 72.9267 32.1254 72.9267 29.3685C72.9267 26.589 70.7131 24.5745 67.9938 24.5745ZM67.9938 32.2733C66.5027 32.2733 65.2168 31.0745 65.2168 29.3685C65.2168 27.6399 66.5027 26.4622 67.9938 26.4622C69.4835 26.4622 70.7651 27.6399 70.7651 29.3685C70.7651 31.0745 69.4835 32.2733 67.9938 32.2733ZM55.1864 26.0438V28.0809H60.1756C60.0297 29.2191 59.6395 30.0559 59.0414 30.6392C58.3131 31.3436 57.1789 32.1254 55.1864 32.1254C52.116 32.1254 49.7117 29.7094 49.7117 26.7158C49.7117 23.7222 52.116 21.3061 55.1864 21.3061C56.8466 21.3061 58.0545 21.9387 58.946 22.7586L60.4183 21.323C59.1714 20.1622 57.5127 19.2705 55.1864 19.2705C50.976 19.2705 47.4375 22.6106 47.4375 26.7158C47.4375 30.8209 50.976 34.1611 55.1864 34.1611C57.4621 34.1611 59.1714 33.4342 60.5151 32.0705C61.8921 30.7279 62.3212 28.8402 62.3212 27.3159C62.3212 26.8426 62.2808 26.4073 62.2085 26.0438H55.1864ZM107.558 27.623C107.152 26.551 105.899 24.5745 103.347 24.5745C100.819 24.5745 98.7135 26.5171 98.7135 29.3685C98.7135 32.0536 100.797 34.1611 103.59 34.1611C105.848 34.1611 107.152 32.8185 107.688 32.0367L106.012 30.9477C105.452 31.7451 104.691 32.2733 103.59 32.2733C102.496 32.2733 101.712 31.7845 101.209 30.8209L107.784 28.1682L107.558 27.623ZM100.853 29.2191C100.797 27.3708 102.326 26.4242 103.421 26.4242C104.279 26.4242 105.007 26.8426 105.25 27.4413L100.853 29.2191ZM95.5088 33.8695H97.6703V19.7819H95.5088V33.8695ZM91.9688 25.6423H91.8966C91.4111 25.0816 90.4849 24.5745 89.3117 24.5745C86.8496 24.5745 84.5985 26.682 84.5985 29.384C84.5985 32.0705 86.8496 34.1611 89.3117 34.1611C90.4849 34.1611 91.4111 33.6497 91.8966 33.0721H91.9688V33.7596C91.9688 35.5924 90.9646 36.5771 89.3449 36.5771C88.0243 36.5771 87.205 35.6473 86.8669 34.8655L84.9871 35.6304C85.529 36.9011 86.9637 38.4648 89.3449 38.4648C91.8792 38.4648 94.0176 37.011 94.0176 33.4736V24.8661H91.9688V25.6423ZM89.4966 32.2733C88.0069 32.2733 86.76 31.0576 86.76 29.384C86.76 27.6949 88.0069 26.4622 89.4966 26.4622C90.9646 26.4622 92.122 27.6949 92.122 29.384C92.122 31.0576 90.9646 32.2733 89.4966 32.2733ZM117.678 19.7819H112.508V33.8695H114.664V28.5317H117.678C120.072 28.5317 122.42 26.8426 122.42 24.1561C122.42 21.471 120.066 19.7819 117.678 19.7819ZM117.734 26.5721H114.664V21.7414H117.734C119.344 21.7414 120.263 23.0445 120.263 24.1561C120.263 25.2464 119.344 26.5721 117.734 26.5721ZM131.06 24.5477C129.503 24.5477 127.883 25.2183 127.217 26.7045L129.13 27.4864C129.542 26.7045 130.299 26.4509 131.099 26.4509C132.217 26.4509 133.352 27.106 133.369 28.2626V28.4105C132.979 28.1907 132.144 27.8653 131.116 27.8653C129.056 27.8653 126.957 28.9712 126.957 31.035C126.957 32.9228 128.644 34.1385 130.541 34.1385C131.992 34.1385 132.793 33.5004 133.295 32.758H133.369V33.8469H135.451V28.4429C135.451 25.9452 133.538 24.5477 131.06 24.5477ZM130.8 32.2677C130.095 32.2677 129.112 31.9268 129.112 31.0745C129.112 29.9841 130.338 29.5657 131.398 29.5657C132.348 29.5657 132.793 29.77 133.369 30.039C133.2 31.3436 132.048 32.2677 130.8 32.2677ZM143.037 24.8562L140.559 30.9632H140.485L137.923 24.8562H135.598L139.448 33.3905L137.251 38.1394H139.504L145.435 24.8562H143.037ZM123.605 33.8695H125.766V19.7819H123.605V33.8695Z" fill="black"/>
</svg>
